# xmcd CD database file
#
# Track frame offsets:
#	150
#	19907
#	44902
#
# Disc length: 899 seconds
#
# Revision: 0
# Processed by: cddbd v1.5.1PL2 Copyright (c) Steve Scherf et al.
# Submitted via: CDex 1.51
#
DISCID=25038103
DTITLE=清春 - 星座の夜/シクラメンのかほり
DYEAR=2006
DGENRE=Rock
TTITLE0=星座の夜
TTITLE1=シクラメンのかほり
TTITLE2=泥沼に浮かぶ花
EXTD=YEAR: 2006
EXTT0=
EXTT1=
EXTT2=
PLAYORDER=
